<?xml version="1.0" encoding="UTF-8" standalone="no"?>
<!-- Created with Inkscape (http://www.inkscape.org/) -->

<svg
   width="210mm"
   height="297mm"
   viewBox="0 0 210 297"
   version="1.1"
   id="svg5"
   xmlns="http://www.w3.org/2000/svg"
   xmlns:svg="http://www.w3.org/2000/svg">
  <defs
     id="defs2">
    <rect
       x="35.07874"
       y="45.872199"
       width="389.91369"
       height="106.5854"
       id="rect25974" />
  </defs>
  <g
     id="layer1">
    <g
       aria-label="Fairfax Tailors"
       id="text1749"
       style="font-size:10.5833px;line-height:1.25;font-family:'Playfair Display';-inkscape-font-specification:'Playfair Display';stroke-width:0.264583">
      <path
         d="m 24.340403,30.013628 q -0.117905,2.632857 -0.176863,5.090187 -0.02947,2.457333 -0.02947,3.803015 0,1.287172 0.02947,2.45733 0.02946,1.170158 0.05895,1.989273 H 23.544527 Q 23.161329,38.789814 22.483356,36.215466 21.805384,33.582613 20.803164,32.470962 19.83042,31.35931 18.474472,31.35931 h -0.972744 q -0.854836,0 -1.296992,0.292559 -0.442155,0.292558 -0.589541,1.170158 -0.147394,0.877616 -0.147394,2.691359 v 29.370973 q 0,2.281805 0.235827,3.393456 0.235825,1.111652 0.913788,1.462702 0.677974,0.351047 2.004441,0.409537 v 1.287171 q -0.913788,-0.05849 -2.358167,-0.117034 -1.444374,-0.05849 -3.036137,-0.05849 -1.267515,0 -2.476077,0.05849 -1.20856,0.05849 -2.1813045,0.117034 v -1.170158 q 0.9432676,-0.117034 1.414902,-0.468085 0.4716305,-0.351047 0.6190185,-1.404188 0.176862,-1.053145 0.176862,-3.159426 V 36.215444 q 0,-2.164792 -0.176862,-3.159426 Q 10.456697,32.002873 9.9555942,31.65183 9.4839611,31.242291 8.5701715,31.183747 v -1.17016 q 1.5917625,0.05849 3.4488195,0.117034 1.857056,0.05849 3.507773,0.05849 1.650717,0 2.652937,0 1.355948,0 3.065618,0 1.739148,-0.05849 3.095092,-0.175525 z m -4.392084,20.243737 q 0,0 0,0.585079 0,0.585079 0,0.585079 h -5.36483 q 0,0 0,-0.585079 0,-0.585079 0,-0.585079 z m 0.736925,-7.723047 q -0.117893,3.33495 -0.117893,5.090188 0.02947,1.755237 0.02947,3.217938 0,1.462695 0.02946,3.217932 0.02947,1.755238 0.147396,5.090188 h -0.677969 q -0.176863,-2.047775 -0.560061,-3.803011 -0.383202,-1.755238 -1.120132,-2.808378 -0.736925,-1.111652 -1.91601,-1.111652 v -1.170158 q 1.179085,0 1.886533,-1.287177 0.70745,-1.28717 1.061176,-3.042407 0.383204,-1.81375 0.560063,-3.393463 z"
         style="font-weight:bold;-inkscape-font-specification:'Playfair Display Bold';fill:#d4aa00;stroke-width:1.03822"
         id="path14861" />
      <path
         d="m 29.115601,71.84678 q -1.974965,0 -2.859279,-2.047774 -0.88431,-2.04778 -0.88431,-4.97317 0,-2.51584 0.560063,-4.095554 0.589541,-1.579718 1.503331,-2.574352 0.913792,-1.053141 1.916013,-1.696725 1.031695,-0.702098 1.945487,-1.345682 0.943266,-0.702098 1.50333,-1.579714 0.589542,-0.877621 0.589542,-2.223304 V 46.74689 q 0,-1.521207 -0.265295,-2.691365 -0.235826,-1.228663 -0.766402,-1.87225 -0.501112,-0.64359 -1.326469,-0.64359 -0.589542,0 -1.179084,0.351048 -0.589541,0.292559 -0.972744,1.05314 0.825359,0.585079 1.267515,1.813749 0.471634,1.170159 0.471634,2.691365 0,1.989268 -0.70745,3.159427 -0.677972,1.170158 -1.621241,1.170158 -1.061176,0 -1.621237,-1.287176 -0.530589,-1.345684 -0.530589,-3.217933 0,-1.696731 0.412678,-2.808384 0.442156,-1.111646 1.208562,-2.106285 0.825356,-0.936121 1.974964,-1.462695 1.179083,-0.526572 2.535029,-0.526572 1.355946,0 2.446597,0.585079 1.090653,0.526572 1.827579,1.989267 0.677976,1.345682 0.884314,3.334956 0.20633,1.930756 0.20633,4.914664 V 67.10764 q 0,1.404189 0.147396,1.989269 0.147395,0.585079 0.501109,0.585079 0.294772,0 0.560065,-0.292559 0.265295,-0.292559 0.501111,-0.702098 l 0.294772,0.994635 q -0.619021,1.053145 -1.444379,1.638224 -0.795881,0.526574 -1.798102,0.526574 -1.768623,0 -2.358165,-1.40419 -0.560067,-1.462695 -0.589542,-3.334949 -0.73693,2.398822 -1.827581,3.56898 -1.061175,1.170159 -2.505552,1.170159 z m 2.269736,-3.744505 q 0.560063,0 1.031697,-0.526574 0.50111,-0.526572 0.972744,-1.872254 V 53.709328 q -0.353726,1.170158 -1.002221,1.989267 -0.619017,0.760603 -1.296991,1.696727 -0.648496,0.877621 -1.090652,2.281809 -0.442156,1.404189 -0.442156,3.744505 0,2.515841 0.530586,3.627493 0.530589,1.05314 1.296993,1.053146 z"
         style="font-weight:bold;-inkscape-font-specification:'Playfair Display Bold';fill:#d4aa00;stroke-width:1.03822"
         id="path14863" />
      <path
         d="m 44.325767,26.093598 q 1.238038,0 1.945488,1.228663 0.736926,1.170159 0.736926,3.276445 0,2.106286 -0.736926,3.334951 -0.70745,1.170158 -1.945488,1.170158 -1.238038,0 -1.974963,-1.170158 -0.707454,-1.228665 -0.707454,-3.334951 0,-2.106286 0.707454,-3.276445 0.736925,-1.228663 1.974963,-1.228663 z m 2.299212,14.451453 v 25.450943 q 0,2.457329 0.412678,3.334951 0.442158,0.877616 1.473855,0.877616 v 1.228664 q -0.530586,-0.05849 -1.650715,-0.117034 -1.120132,-0.117033 -2.269737,-0.117033 -1.149606,0 -2.328688,0.117033 -1.179083,0.05849 -1.768625,0.117034 v -1.228664 q 1.031696,0 1.444374,-0.877616 0.442159,-0.877622 0.442159,-3.334951 V 47.566 q 0,-2.632853 -0.412678,-3.861522 -0.383204,-1.287172 -1.473855,-1.287172 v -1.22867 q 0.943265,0.175524 1.827577,0.175524 1.23804,0 2.299215,-0.175524 1.090651,-0.234013 2.00444,-0.643585 z"
         style="font-weight:bold;-inkscape-font-specification:'Playfair Display Bold';fill:#d4aa00;stroke-width:1.03822"
         id="path14865" />
      <path
         d="m 59.919103,40.369527 q 0.943264,0 1.532806,0.819109 0.589542,0.760603 0.854836,1.989273 0.29477,1.228665 0.29477,2.574348 0,2.164791 -0.648493,3.568981 -0.619021,1.345682 -1.650718,1.345682 -1.031699,0 -1.621241,-0.994635 -0.560062,-1.053139 -0.560062,-2.749871 0,-1.638224 0.353724,-2.691364 0.383201,-1.111653 0.943268,-1.872256 -0.412678,-0.234013 -0.825362,0.05849 -0.766401,0.234013 -1.385422,1.462694 -0.589542,1.170158 -0.943264,2.808383 -0.353727,1.63822 -0.353727,3.217933 v 15.504599 q 0,2.808377 0.677973,3.803011 0.707449,0.994633 2.092872,0.994633 v 1.228666 q -0.677973,-0.05849 -1.974965,-0.117034 -1.296991,-0.117033 -2.711889,-0.117033 -1.179084,0 -2.387646,0.117033 -1.20856,0.05849 -1.827577,0.117034 v -1.228666 q 1.031696,0 1.444376,-0.877615 0.442157,-0.877621 0.442157,-3.33495 V 47.565977 q 0,-2.632854 -0.412679,-3.861522 -0.383203,-1.287172 -1.473854,-1.287172 v -1.228669 q 0.943264,0.175524 1.827577,0.175524 1.238038,0 2.299214,-0.175524 1.090652,-0.234014 2.004441,-0.643585 v 5.441236 q 0.353727,-1.579713 0.943268,-2.86689 0.589542,-1.287169 1.355947,-1.989268 0.766401,-0.760603 1.70967,-0.760603 z"
         style="font-weight:bold;-inkscape-font-specification:'Playfair Display Bold';fill:#d4aa00;stroke-width:1.03822"
         id="path14867" />
      <path
         d="m 71.191037,25.684042 q 1.031699,0 1.798103,0.526574 0.766406,0.526573 1.355948,1.404188 0.412678,0.643586 0.707448,1.813744 0.294772,1.111651 0.294772,2.574346 0,1.579719 -0.589542,2.808384 -0.560066,1.228664 -1.503334,1.228664 -0.97274,0 -1.621238,-1.111652 -0.619018,-1.111646 -0.619018,-3.042407 0,-1.521208 0.442155,-2.691366 0.442158,-1.170158 1.296992,-1.638219 -0.08843,-0.351048 -0.353723,-0.585079 -0.265295,-0.234013 -0.70745,-0.234013 -0.589542,0 -0.972745,0.409537 -0.383202,0.409538 -0.61902,1.111647 -0.324247,0.877621 -0.442156,2.574346 -0.117904,1.638226 -0.117904,5.090188 v 5.324224 h 3.154047 v 1.170158 h -3.154047 v 22.993609 q 0,2.866883 0.736926,3.861518 0.736928,0.936128 2.033918,0.936128 v 1.228664 q -0.766404,-0.05849 -2.151828,-0.117034 -1.385421,-0.117033 -2.918232,-0.117033 -1.120126,0 -2.21078,0.117033 -1.061175,0.05849 -1.62124,0.117034 v -1.228664 q 1.031699,0 1.444379,-0.877616 0.442156,-0.877622 0.442156,-3.334951 V 42.417306 h -2.004442 v -1.170158 h 2.004442 q 0,-5.207206 0.41268,-7.898572 0.412679,-2.74987 1.444375,-4.739138 0.648497,-1.228664 1.709673,-2.047774 1.090651,-0.877622 2.328687,-0.877622 z"
         style="font-weight:bold;-inkscape-font-specification:'Playfair Display Bold';fill:#d4aa00;stroke-width:1.03822"
         id="path14869" />
      <path
         d="m 77.675978,71.84678 q -1.974964,0 -2.859276,-2.047774 -0.884314,-2.04778 -0.884314,-4.97317 0,-2.51584 0.560066,-4.095554 0.589543,-1.579718 1.503331,-2.574352 0.913789,-1.053141 1.916009,-1.696725 1.031699,-0.702098 1.945489,-1.345682 0.943267,-0.702098 1.503331,-1.579714 0.589541,-0.877621 0.589541,-2.223304 V 46.74689 q 0,-1.521207 -0.265295,-2.691365 -0.235827,-1.228663 -0.766405,-1.87225 -0.50111,-0.64359 -1.326469,-0.64359 -0.589543,0 -1.179085,0.351048 -0.589542,0.292559 -0.972741,1.05314 0.825358,0.585079 1.267513,1.813749 0.471635,1.170159 0.471635,2.691365 0,1.989268 -0.707451,3.159427 -0.677973,1.170158 -1.621238,1.170158 -1.061176,0 -1.621241,-1.287176 -0.530586,-1.345684 -0.530586,-3.217933 0,-1.696731 0.412678,-2.808384 0.442155,-1.111646 1.20856,-2.106285 0.825358,-0.936121 1.974965,-1.462695 1.179083,-0.526572 2.535029,-0.526572 1.355946,0 2.446599,0.585079 1.090651,0.526572 1.827576,1.989267 0.677974,1.345682 0.884314,3.334956 0.206331,1.930756 0.206331,4.914664 V 67.10764 q 0,1.404189 0.147395,1.989269 0.147395,0.585079 0.50111,0.585079 0.294772,0 0.560066,-0.292559 0.265295,-0.292559 0.501109,-0.702098 l 0.294771,0.994635 q -0.619017,1.053145 -1.444378,1.638224 -0.795881,0.526574 -1.798101,0.526574 -1.768625,0 -2.358167,-1.40419 -0.560065,-1.462695 -0.589541,-3.334949 -0.736927,2.398822 -1.82758,3.56898 -1.061174,1.170159 -2.505552,1.170159 z m 2.269736,-3.744505 q 0.560065,0 1.0317,-0.526574 0.501109,-0.526572 0.972741,-1.872254 V 53.709328 q -0.353723,1.170158 -1.002221,1.989267 -0.619018,0.760603 -1.296991,1.696727 -0.648497,0.877621 -1.090651,2.281809 -0.442159,1.404189 -0.442159,3.744505 0,2.515841 0.53059,3.627493 0.530587,1.05314 1.296991,1.053146 z"
         style="font-weight:bold;-inkscape-font-specification:'Playfair Display Bold';fill:#d4aa00;stroke-width:1.03822"
         id="path14871" />
      <path
         d="m 95.598035,41.188636 v 1.22867 q -0.589542,0 -0.884312,0.526572 -0.265295,0.526574 0.02947,1.462702 l 7.752477,22.87659 q 0.35373,1.053141 0.73692,1.930762 0.41268,0.81911 0.9138,0.994634 v 1.228664 q -0.44215,-0.05849 -1.35596,-0.117033 -0.88431,-0.117034 -1.7981,-0.117034 -1.061167,0 -2.181297,0.117034 -1.120131,0.05849 -1.650722,0.117033 v -1.228664 q 0.589549,0 0.854835,-0.526573 0.29478,-0.526574 0,-1.462696 L 90.262671,45.342707 Q 89.76157,43.88 89.407844,43.236416 89.083598,42.534318 88.611963,42.417306 v -1.22867 q 0.501111,0.05849 1.503333,0.175524 1.00222,0.05849 2.004442,0.05849 0.972744,0 1.974965,-0.05849 1.00222,-0.117033 1.503332,-0.175524 z m -0.677974,16.148185 q 0,0 0.08843,0.702097 0.08843,0.702091 0.08843,0.702091 l -1.179083,2.983907 q -0.884314,2.281804 -0.972745,4.212566 -0.08843,1.872255 0.501111,3.042414 0.58954,1.111646 1.621242,1.287171 v 1.170158 q -0.560067,-0.05849 -1.385423,-0.05849 -0.795882,-0.05849 -1.562286,-0.05849 -0.766406,-0.05849 -1.296992,-0.05849 -1.208562,0 -2.063397,0.175523 v -1.170149 q 0.677974,-0.526572 1.296992,-1.521202 0.619019,-1.053144 1.385423,-2.983906 z m 8.371489,-16.148185 v 1.170158 q -0.61902,0.351048 -1.29699,1.521206 -0.67797,1.17016 -1.4149,2.983908 l -3.242471,8.074089 q 0,0 -0.08845,-0.643585 -0.08845,-0.702097 -0.08845,-0.702097 l 1.473858,-3.92003 q 1.208562,-3.042413 1.002213,-5.03168 -0.206326,-2.047774 -1.768616,-2.281811 v -1.170158 q 0.854835,0.05849 1.739142,0.117034 0.884324,0.05849 1.591764,0.05849 1.23804,0 2.09286,-0.175524 z"
         style="font-weight:bold;-inkscape-font-specification:'Playfair Display Bold';fill:#d4aa00;stroke-width:1.03822"
         id="path14873" />
      <path
         d="m 128.90706,30.013628 q -0.11788,2.983906 -0.17687,5.733777 -0.0294,2.749871 -0.0294,4.212567 0,1.287176 0.0294,2.457334 0.0295,1.170158 0.059,1.989268 h -0.67798 q -0.47162,-4.914663 -1.20856,-7.781553 -0.70744,-2.866889 -1.70968,-4.037047 -1.00221,-1.228664 -2.35816,-1.228664 h -0.67797 v 33.408014 q 0,2.340316 0.23582,3.510474 0.2653,1.17016 0.94327,1.579713 0.67798,0.35105 1.97496,0.409539 v 1.170158 q -0.91378,-0.05849 -2.4466,-0.117034 -1.50332,-0.05849 -3.15404,-0.05849 -1.62124,0 -3.06561,0.05849 -1.44438,0.05849 -2.3287,0.117034 V 70.26705 q 1.32647,-0.05849 2.00444,-0.409539 0.67797,-0.409538 0.9138,-1.579713 Q 117.47,67.10764 117.47,64.767324 V 31.35931 h -0.64849 q -1.35596,0 -2.35818,1.228664 -1.00221,1.170158 -1.70966,4.037047 -0.70744,2.808378 -1.23805,7.781553 h -0.67796 q 0.059,-0.81911 0.059,-1.989268 0.0294,-1.170158 0.0294,-2.457334 0,-1.462696 -0.059,-4.212567 -0.0294,-2.749871 -0.14739,-5.733777 1.35594,0.05849 2.94771,0.117034 1.62124,0.05849 3.24248,0.05849 1.62123,0 2.91822,0 1.32647,0 2.91823,0 1.62124,0 3.2425,-0.05849 1.62123,-0.05849 2.91823,-0.117034 z"
         style="font-weight:bold;-inkscape-font-specification:'Playfair Display Bold';fill:#d4aa00;stroke-width:1.03822"
         id="path14875" />
      <path
         d="m 133.50543,71.84678 q -1.97497,0 -2.85927,-2.047774 -0.88431,-2.04778 -0.88431,-4.97317 0,-2.51584 0.56006,-4.095554 0.58953,-1.579718 1.50334,-2.574352 0.91377,-1.053141 1.916,-1.696725 1.03169,-0.702098 1.94549,-1.345682 0.94327,-0.702098 1.50333,-1.579714 0.58953,-0.877621 0.58953,-2.223304 V 46.74689 q 0,-1.521207 -0.26528,-2.691365 -0.23583,-1.228663 -0.7664,-1.87225 -0.50111,-0.64359 -1.32647,-0.64359 -0.58955,0 -1.17909,0.351048 -0.58955,0.292559 -0.97274,1.05314 0.82536,0.585079 1.26751,1.813749 0.47164,1.170159 0.47164,2.691365 0,1.989268 -0.70746,3.159427 -0.67798,1.170158 -1.62124,1.170158 -1.06117,0 -1.62124,-1.287176 -0.53059,-1.345684 -0.53059,-3.217933 0,-1.696731 0.41269,-2.808384 0.44215,-1.111646 1.20856,-2.106285 0.82535,-0.936121 1.97497,-1.462695 1.17907,-0.526572 2.53502,-0.526572 1.35594,0 2.44659,0.585079 1.09066,0.526572 1.82758,1.989267 0.67798,1.345682 0.88432,3.334956 0.20632,1.930756 0.20632,4.914664 V 67.10764 q 0,1.404189 0.14741,1.989269 0.1474,0.585079 0.50111,0.585079 0.29475,0 0.56005,-0.292559 0.26531,-0.292559 0.50111,-0.702098 l 0.29478,0.994635 q -0.61903,1.053145 -1.44438,1.638224 -0.79588,0.526574 -1.7981,0.526574 -1.76863,0 -2.35816,-1.40419 -0.56008,-1.462695 -0.58955,-3.334949 -0.73692,2.398822 -1.82758,3.56898 -1.06118,1.170159 -2.50555,1.170159 z m 2.26975,-3.744505 q 0.56005,0 1.03168,-0.526574 0.5011,-0.526572 0.97274,-1.872254 V 53.709328 q -0.35372,1.170158 -1.00221,1.989267 -0.61901,0.760603 -1.297,1.696727 -0.64849,0.877621 -1.09064,2.281809 -0.44217,1.404189 -0.44217,3.744505 0,2.515841 0.5306,3.627493 0.53059,1.05314 1.297,1.053146 z"
         style="font-weight:bold;-inkscape-font-specification:'Playfair Display Bold';fill:#d4aa00;stroke-width:1.03822"
         id="path14877" />
      <path
         d="m 148.71561,26.093598 q 1.23803,0 1.94548,1.228663 0.73693,1.170159 0.73693,3.276445 0,2.106286 -0.73693,3.334951 -0.70745,1.170158 -1.94548,1.170158 -1.23804,0 -1.97498,-1.170158 -0.70744,-1.228665 -0.70744,-3.334951 0,-2.106286 0.70744,-3.276445 0.73694,-1.228663 1.97498,-1.228663 z m 2.29921,14.451453 v 25.450943 q 0,2.457329 0.41267,3.334951 0.44216,0.877616 1.47386,0.877616 v 1.228664 q -0.53059,-0.05849 -1.65071,-0.117034 -1.12014,-0.117033 -2.26975,-0.117033 -1.14961,0 -2.32867,0.117033 -1.17909,0.05849 -1.76863,0.117034 v -1.228664 q 1.03169,0 1.44437,-0.877616 0.44216,-0.877622 0.44216,-3.334951 V 47.566 q 0,-2.632853 -0.41269,-3.861522 -0.3832,-1.287172 -1.47384,-1.287172 v -1.22867 q 0.94326,0.175524 1.82757,0.175524 1.23804,0 2.29921,-0.175524 1.09065,-0.234013 2.00445,-0.643585 z"
         style="font-weight:bold;-inkscape-font-specification:'Playfair Display Bold';fill:#d4aa00;stroke-width:1.03822"
         id="path14879" />
      <path
         d="m 160.18214,25.625537 v 40.370457 q 0,2.457329 0.41269,3.334951 0.44216,0.877616 1.47385,0.877616 v 1.228664 q -0.56007,-0.05849 -1.6802,-0.117034 -1.12012,-0.117033 -2.26973,-0.117033 -1.1496,0 -2.32868,0.117033 -1.14961,0.05849 -1.73915,0.117034 v -1.228664 q 1.03168,0 1.44437,-0.877616 0.44215,-0.877622 0.44215,-3.334951 V 32.646485 q 0,-2.632857 -0.41267,-3.861523 -0.3832,-1.287175 -1.47385,-1.287175 v -1.228665 q 0.94327,0.175525 1.82758,0.175525 1.20856,0 2.29921,-0.175525 1.09065,-0.234015 2.00443,-0.643585 z"
         style="font-weight:bold;-inkscape-font-specification:'Playfair Display Bold';fill:#d4aa00;stroke-width:1.03822"
         id="path14881" />
      <path
         d="m 170.64647,40.369527 q 2.15182,0 3.77307,1.579712 1.62124,1.579713 2.53502,5.090187 0.9138,3.510475 0.9138,9.30276 0,5.792284 -0.9138,9.30276 -0.91378,3.451963 -2.53502,5.031676 -1.62125,1.579718 -3.77307,1.579718 -2.09287,0 -3.74358,-1.579718 -1.62124,-1.579713 -2.56451,-5.031676 -0.91379,-3.510476 -0.91379,-9.30276 0,-5.792285 0.91379,-9.30276 0.94327,-3.510474 2.56451,-5.090187 1.65071,-1.579712 3.74358,-1.579712 z m 0,1.170158 q -1.17908,0 -1.97496,3.510475 -0.79588,3.451967 -0.79588,11.292026 0,7.840059 0.79588,11.292028 0.79588,3.451968 1.97496,3.451968 1.20856,0 1.97496,-3.451968 0.79589,-3.451969 0.79589,-11.292028 0,-7.840059 -0.79589,-11.292026 -0.7664,-3.510475 -1.97496,-3.510475 z"
         style="font-weight:bold;-inkscape-font-specification:'Playfair Display Bold';fill:#d4aa00;stroke-width:1.03822"
         id="path14883" />
      <path
         d="m 189.83602,40.369527 q 0.94325,0 1.5328,0.819109 0.58954,0.760603 0.85484,1.989273 0.29476,1.228665 0.29476,2.574348 0,2.164791 -0.64849,3.568981 -0.61902,1.345682 -1.65072,1.345682 -1.03169,0 -1.62124,-0.994635 -0.56006,-1.053139 -0.56006,-2.749871 0,-1.638224 0.35373,-2.691364 0.3832,-1.111653 0.94325,-1.872256 -0.41267,-0.234013 -0.82534,0.05849 -0.76642,0.234013 -1.38543,1.462694 -0.58955,1.170158 -0.94328,2.808383 -0.35371,1.63822 -0.35371,3.217933 v 15.504599 q 0,2.808377 0.67796,3.803011 0.70746,0.994633 2.09288,0.994633 v 1.228666 q -0.67796,-0.05849 -1.97496,-0.117034 -1.297,-0.117033 -2.71189,-0.117033 -1.17909,0 -2.38764,0.117033 -1.20856,0.05849 -1.82758,0.117034 v -1.228666 q 1.03169,0 1.44438,-0.877615 0.44215,-0.877621 0.44215,-3.33495 V 47.565977 q 0,-2.632854 -0.41268,-3.861522 -0.3832,-1.287172 -1.47385,-1.287172 v -1.228669 q 0.94326,0.175524 1.82758,0.175524 1.23803,0 2.29921,-0.175524 1.09064,-0.234014 2.00444,-0.643585 v 5.441236 q 0.35371,-1.579713 0.94326,-2.86689 0.58955,-1.287169 1.35595,-1.989268 0.76641,-0.760603 1.70968,-0.760603 z"
         style="font-weight:bold;-inkscape-font-specification:'Playfair Display Bold';fill:#d4aa00;stroke-width:1.03822"
         id="path14885" />
      <path
         d="m 199.29813,40.369527 q 1.23804,0 2.15183,0.64359 0.94326,0.585079 1.35594,1.170158 1.00222,1.345677 1.23803,-1.755237 h 0.61902 q -0.059,1.638219 -0.0884,4.037041 -0.0295,2.340318 -0.0295,6.260347 h -0.61903 q -0.14738,-2.164792 -0.56005,-4.271078 -0.41269,-2.10628 -1.20857,-3.451962 -0.7664,-1.345684 -2.00443,-1.345684 -0.85483,0 -1.44439,0.994634 -0.58953,0.936128 -0.58953,2.749872 0,1.755237 0.53059,3.100919 0.53058,1.287177 1.35594,2.51584 0.85483,1.17016 1.76862,2.515842 1.47387,2.164791 2.47608,4.388091 1.03171,2.164791 1.03171,5.675265 0,2.63286 -0.76641,4.622127 -0.76641,1.930762 -2.03392,2.983902 -1.23804,1.053146 -2.77086,1.053146 -0.88431,0 -1.59175,-0.351049 -0.67797,-0.351048 -1.17909,-0.877621 -0.3832,-0.351048 -0.73693,-0.643585 -0.32424,-0.351048 -0.61901,-0.585079 -0.29477,-0.175526 -0.53058,0.409538 -0.20634,0.585079 -0.32425,1.63822 h -0.61903 q 0.059,-1.872251 0.0884,-4.563616 0.0295,-2.691365 0.0295,-7.137961 h 0.61901 q 0.17686,3.159426 0.6485,5.616755 0.47163,2.398828 1.26752,3.803016 0.82536,1.345684 2.06339,1.345684 0.76641,0 1.4149,-0.936129 0.6485,-0.994634 0.6485,-3.217937 0,-2.574348 -0.85484,-4.271073 -0.82535,-1.696732 -2.12234,-3.685998 -0.94329,-1.521208 -1.79812,-2.983908 -0.82535,-1.521202 -1.35594,-3.276438 -0.53058,-1.81375 -0.53058,-4.095555 0,-2.632858 0.70746,-4.446601 0.70742,-1.813745 1.85704,-2.691366 1.17909,-0.936127 2.50556,-0.936127 z"
         style="font-weight:bold;-inkscape-font-specification:'Playfair Display Bold';fill:#d4aa00;stroke-width:1.03822"
         id="path14887" />
    </g>
    <text
       xml:space="preserve"
       transform="scale(0.26458333)"
       id="text25972"
       style="line-height:1.25;font-family:'Playfair Display';font-size:40px;-inkscape-font-specification:'Playfair Display';white-space:pre;shape-inside:url(#rect25974)" />
  </g>
  <style
     id="style26640">.cls-1{fill:#fed136;}</style>
</svg>
